<?xml version="1.0" encoding="UTF-8" standalone="no"?>
<!DOCTYPE svg PUBLIC "-//W3C//DTD SVG 1.1//EN"
 "http://www.w3.org/Graphics/SVG/1.1/DTD/svg11.dtd">
<!-- Generated by graphviz version 2.47.0 (20210316.0004)
 -->
<!-- Title: dependencies Pages: 1 -->
<svg width="504pt" height="211pt"
 viewBox="0.00 0.00 504.00 211.00" xmlns="http://www.w3.org/2000/svg" xmlns:xlink="http://www.w3.org/1999/xlink">
<g id="graph0" class="graph" transform="scale(1 1) rotate(0) translate(4 207)">
<title>dependencies</title>
<polygon fill="white" stroke="transparent" points="-4,4 -4,-207 500,-207 500,4 -4,4"/>
<text text-anchor="start" x="227.01" y="-42.4" font-family="Times-12" font-weight="bold" font-size="14.00">Legend</text>
<polygon fill="#ffffb3" stroke="transparent" points="14,-10 14,-30 34,-30 34,-10 14,-10"/>
<text text-anchor="start" x="37.63" y="-15.4" font-family="Times-12" font-size="14.00"> &#160;Declarations</text>
<polygon fill="#8dd3c7" stroke="transparent" points="127,-10 127,-30 147,-30 147,-10 127,-10"/>
<text text-anchor="start" x="150.73" y="-15.4" font-family="Times-12" font-size="14.00"> &#160;Module</text>
<polygon fill="#80b1d3" stroke="transparent" points="213,-10 213,-30 233,-30 233,-10 213,-10"/>
<text text-anchor="start" x="236.78" y="-15.4" font-family="Times-12" font-size="14.00"> &#160;Bootstrap</text>
<polygon fill="#fdb462" stroke="transparent" points="310,-10 310,-30 330,-30 330,-10 310,-10"/>
<text text-anchor="start" x="333.67" y="-15.4" font-family="Times-12" font-size="14.00"> &#160;Providers</text>
<polygon fill="#fb8072" stroke="transparent" points="406,-10 406,-30 426,-30 426,-10 406,-10"/>
<text text-anchor="start" x="429.73" y="-15.4" font-family="Times-12" font-size="14.00"> &#160;Exports</text>
<g id="clust1" class="cluster">
<title>cluster_RiwayatAssetTemporaryModule</title>
<polygon fill="none" stroke="black" stroke-dasharray="1,5" points="34,-70 34,-195 462,-195 462,-70 34,-70"/>
</g>
<g id="clust3" class="cluster">
<title>cluster_RiwayatAssetTemporaryModule_imports</title>
<polygon fill="none" stroke="black" points="340,-78 340,-130 454,-130 454,-78 340,-78"/>
</g>
<g id="clust6" class="cluster">
<title>cluster_RiwayatAssetTemporaryModule_providers</title>
<polygon fill="none" stroke="black" points="42,-78 42,-130 332,-130 332,-78 42,-78"/>
</g>
<!-- PrismaModule -->
<g id="node1" class="node">
<title>PrismaModule</title>
<polygon fill="#8dd3c7" stroke="black" points="446.43,-122 443.43,-126 422.43,-126 419.43,-122 347.57,-122 347.57,-86 446.43,-86 446.43,-122"/>
<text text-anchor="middle" x="397" y="-99.8" font-family="Times,serif" font-size="14.00">PrismaModule</text>
</g>
<!-- RiwayatAssetTemporaryModule -->
<g id="node2" class="node">
<title>RiwayatAssetTemporaryModule</title>
<polygon fill="#8dd3c7" stroke="black" points="370,-187 367,-191 346,-191 343,-187 170,-187 170,-151 370,-151 370,-187"/>
<text text-anchor="middle" x="270" y="-164.8" font-family="Times,serif" font-size="14.00">RiwayatAssetTemporaryModule</text>
</g>
<!-- PrismaModule&#45;&gt;RiwayatAssetTemporaryModule -->
<g id="edge1" class="edge">
<title>PrismaModule&#45;&gt;RiwayatAssetTemporaryModule</title>
<path fill="none" stroke="black" d="M358.77,-122.11C358.77,-122.11 358.77,-140.99 358.77,-140.99"/>
<polygon fill="black" stroke="black" points="355.27,-140.99 358.77,-150.99 362.27,-140.99 355.27,-140.99"/>
</g>
<!-- RiwayatAssetTemporaryService -->
<g id="node3" class="node">
<title>RiwayatAssetTemporaryService</title>
<ellipse fill="#fdb462" stroke="black" cx="187" cy="-104" rx="136.55" ry="18"/>
<text text-anchor="middle" x="187" y="-99.8" font-family="Times,serif" font-size="14.00">RiwayatAssetTemporaryService</text>
</g>
<!-- RiwayatAssetTemporaryService&#45;&gt;RiwayatAssetTemporaryModule -->
<g id="edge2" class="edge">
<title>RiwayatAssetTemporaryService&#45;&gt;RiwayatAssetTemporaryModule</title>
<path fill="none" stroke="black" d="M246.89,-120.4C246.89,-120.4 246.89,-140.54 246.89,-140.54"/>
<polygon fill="black" stroke="black" points="243.39,-140.54 246.89,-150.54 250.39,-140.54 243.39,-140.54"/>
</g>
</g>
</svg>
