<?xml version="1.0" encoding="UTF-8" standalone="no"?>
<!DOCTYPE svg PUBLIC "-//W3C//DTD SVG 1.1//EN"
 "http://www.w3.org/Graphics/SVG/1.1/DTD/svg11.dtd">
<!-- Generated by graphviz version 2.47.0 (20210316.0004)
 -->
<!-- Title: dependencies Pages: 1 -->
<svg width="504pt" height="211pt"
 viewBox="0.00 0.00 504.00 211.00" xmlns="http://www.w3.org/2000/svg" xmlns:xlink="http://www.w3.org/1999/xlink">
<g id="graph0" class="graph" transform="scale(1 1) rotate(0) translate(4 207)">
<title>dependencies</title>
<polygon fill="white" stroke="transparent" points="-4,4 -4,-207 500,-207 500,4 -4,4"/>
<text text-anchor="start" x="227.01" y="-42.4" font-family="Times-12" font-weight="bold" font-size="14.00">Legend</text>
<polygon fill="#ffffb3" stroke="transparent" points="14,-10 14,-30 34,-30 34,-10 14,-10"/>
<text text-anchor="start" x="37.63" y="-15.4" font-family="Times-12" font-size="14.00"> &#160;Declarations</text>
<polygon fill="#8dd3c7" stroke="transparent" points="127,-10 127,-30 147,-30 147,-10 127,-10"/>
<text text-anchor="start" x="150.73" y="-15.4" font-family="Times-12" font-size="14.00"> &#160;Module</text>
<polygon fill="#80b1d3" stroke="transparent" points="213,-10 213,-30 233,-30 233,-10 213,-10"/>
<text text-anchor="start" x="236.78" y="-15.4" font-family="Times-12" font-size="14.00"> &#160;Bootstrap</text>
<polygon fill="#fdb462" stroke="transparent" points="310,-10 310,-30 330,-30 330,-10 310,-10"/>
<text text-anchor="start" x="333.67" y="-15.4" font-family="Times-12" font-size="14.00"> &#160;Providers</text>
<polygon fill="#fb8072" stroke="transparent" points="406,-10 406,-30 426,-30 426,-10 406,-10"/>
<text text-anchor="start" x="429.73" y="-15.4" font-family="Times-12" font-size="14.00"> &#160;Exports</text>
<g id="clust1" class="cluster">
<title>cluster_DaftarAssetTemporaryModule</title>
<polygon fill="none" stroke="black" stroke-dasharray="1,5" points="42,-70 42,-195 454,-195 454,-70 42,-70"/>
</g>
<g id="clust3" class="cluster">
<title>cluster_DaftarAssetTemporaryModule_imports</title>
<polygon fill="none" stroke="black" points="332,-78 332,-130 446,-130 446,-78 332,-78"/>
</g>
<g id="clust6" class="cluster">
<title>cluster_DaftarAssetTemporaryModule_providers</title>
<polygon fill="none" stroke="black" points="50,-78 50,-130 324,-130 324,-78 50,-78"/>
</g>
<!-- PrismaModule -->
<g id="node1" class="node">
<title>PrismaModule</title>
<polygon fill="#8dd3c7" stroke="black" points="438.43,-122 435.43,-126 414.43,-126 411.43,-122 339.57,-122 339.57,-86 438.43,-86 438.43,-122"/>
<text text-anchor="middle" x="389" y="-99.8" font-family="Times,serif" font-size="14.00">PrismaModule</text>
</g>
<!-- DaftarAssetTemporaryModule -->
<g id="node2" class="node">
<title>DaftarAssetTemporaryModule</title>
<polygon fill="#8dd3c7" stroke="black" points="363.09,-187 360.09,-191 339.09,-191 336.09,-187 174.91,-187 174.91,-151 363.09,-151 363.09,-187"/>
<text text-anchor="middle" x="269" y="-164.8" font-family="Times,serif" font-size="14.00">DaftarAssetTemporaryModule</text>
</g>
<!-- PrismaModule&#45;&gt;DaftarAssetTemporaryModule -->
<g id="edge1" class="edge">
<title>PrismaModule&#45;&gt;DaftarAssetTemporaryModule</title>
<path fill="none" stroke="black" d="M351.54,-122.11C351.54,-122.11 351.54,-140.99 351.54,-140.99"/>
<polygon fill="black" stroke="black" points="348.04,-140.99 351.54,-150.99 355.04,-140.99 348.04,-140.99"/>
</g>
<!-- DaftarAssetTemporaryService -->
<g id="node3" class="node">
<title>DaftarAssetTemporaryService</title>
<ellipse fill="#fdb462" stroke="black" cx="187" cy="-104" rx="129.01" ry="18"/>
<text text-anchor="middle" x="187" y="-99.8" font-family="Times,serif" font-size="14.00">DaftarAssetTemporaryService</text>
</g>
<!-- DaftarAssetTemporaryService&#45;&gt;DaftarAssetTemporaryModule -->
<g id="edge2" class="edge">
<title>DaftarAssetTemporaryService&#45;&gt;DaftarAssetTemporaryModule</title>
<path fill="none" stroke="black" d="M245.35,-120.07C245.35,-120.07 245.35,-140.82 245.35,-140.82"/>
<polygon fill="black" stroke="black" points="241.85,-140.82 245.35,-150.82 248.85,-140.82 241.85,-140.82"/>
</g>
</g>
</svg>
