<?xml version="1.0" encoding="UTF-8" standalone="no"?>
<!DOCTYPE svg PUBLIC "-//W3C//DTD SVG 1.1//EN"
 "http://www.w3.org/Graphics/SVG/1.1/DTD/svg11.dtd">
<!-- Generated by graphviz version 2.47.0 (20210316.0004)
 -->
<!-- Title: dependencies Pages: 1 -->
<svg width="2043pt" height="211pt"
 viewBox="0.00 0.00 2043.00 211.00" xmlns="http://www.w3.org/2000/svg" xmlns:xlink="http://www.w3.org/1999/xlink">
<g id="graph0" class="graph" transform="scale(1 1) rotate(0) translate(4 207)">
<title>dependencies</title>
<polygon fill="white" stroke="transparent" points="-4,4 -4,-207 2039,-207 2039,4 -4,4"/>
<text text-anchor="start" x="996.51" y="-42.4" font-family="Times-12" font-weight="bold" font-size="14.00">Legend</text>
<polygon fill="#ffffb3" stroke="transparent" points="783.5,-10 783.5,-30 803.5,-30 803.5,-10 783.5,-10"/>
<text text-anchor="start" x="807.13" y="-15.4" font-family="Times-12" font-size="14.00"> &#160;Declarations</text>
<polygon fill="#8dd3c7" stroke="transparent" points="896.5,-10 896.5,-30 916.5,-30 916.5,-10 896.5,-10"/>
<text text-anchor="start" x="920.23" y="-15.4" font-family="Times-12" font-size="14.00"> &#160;Module</text>
<polygon fill="#80b1d3" stroke="transparent" points="982.5,-10 982.5,-30 1002.5,-30 1002.5,-10 982.5,-10"/>
<text text-anchor="start" x="1006.28" y="-15.4" font-family="Times-12" font-size="14.00"> &#160;Bootstrap</text>
<polygon fill="#fdb462" stroke="transparent" points="1079.5,-10 1079.5,-30 1099.5,-30 1099.5,-10 1079.5,-10"/>
<text text-anchor="start" x="1103.17" y="-15.4" font-family="Times-12" font-size="14.00"> &#160;Providers</text>
<polygon fill="#fb8072" stroke="transparent" points="1175.5,-10 1175.5,-30 1195.5,-30 1195.5,-10 1175.5,-10"/>
<text text-anchor="start" x="1199.23" y="-15.4" font-family="Times-12" font-size="14.00"> &#160;Exports</text>
<g id="clust1" class="cluster">
<title>cluster_AppModule</title>
<polygon fill="none" stroke="black" stroke-dasharray="1,5" points="8,-70 8,-195 2027,-195 2027,-70 8,-70"/>
</g>
<g id="clust3" class="cluster">
<title>cluster_AppModule_imports</title>
<polygon fill="none" stroke="black" points="154,-78 154,-130 2019,-130 2019,-78 154,-78"/>
</g>
<g id="clust6" class="cluster">
<title>cluster_AppModule_providers</title>
<polygon fill="none" stroke="black" points="16,-78 16,-130 146,-130 146,-78 16,-78"/>
</g>
<!-- AdminPenggunaModule -->
<g id="node1" class="node">
<title>AdminPenggunaModule</title>
<polygon fill="#8dd3c7" stroke="black" points="2010.65,-122 2007.65,-126 1986.65,-126 1983.65,-122 1857.35,-122 1857.35,-86 2010.65,-86 2010.65,-122"/>
<text text-anchor="middle" x="1934" y="-99.8" font-family="Times,serif" font-size="14.00">AdminPenggunaModule</text>
</g>
<!-- AppModule -->
<g id="node14" class="node">
<title>AppModule</title>
<polygon fill="#8dd3c7" stroke="black" points="1018.66,-187 1015.66,-191 994.66,-191 991.66,-187 935.34,-187 935.34,-151 1018.66,-151 1018.66,-187"/>
<text text-anchor="middle" x="977" y="-164.8" font-family="Times,serif" font-size="14.00">AppModule</text>
</g>
<!-- AdminPenggunaModule&#45;&gt;AppModule -->
<g id="edge1" class="edge">
<title>AdminPenggunaModule&#45;&gt;AppModule</title>
<path fill="none" stroke="black" d="M1934,-122.09C1934,-145.13 1934,-182 1934,-182 1934,-182 1028.74,-182 1028.74,-182"/>
<polygon fill="black" stroke="black" points="1028.74,-178.5 1018.74,-182 1028.74,-185.5 1028.74,-178.5"/>
</g>
<!-- AuthModule -->
<g id="node2" class="node">
<title>AuthModule</title>
<polygon fill="#8dd3c7" stroke="black" points="1838.55,-122 1835.55,-126 1814.55,-126 1811.55,-122 1751.45,-122 1751.45,-86 1838.55,-86 1838.55,-122"/>
<text text-anchor="middle" x="1795" y="-99.8" font-family="Times,serif" font-size="14.00">AuthModule</text>
</g>
<!-- AuthModule&#45;&gt;AppModule -->
<g id="edge2" class="edge">
<title>AuthModule&#45;&gt;AppModule</title>
<path fill="none" stroke="black" d="M1795,-122.04C1795,-143.66 1795,-177 1795,-177 1795,-177 1028.69,-177 1028.69,-177"/>
<polygon fill="black" stroke="black" points="1028.69,-173.5 1018.69,-177 1028.69,-180.5 1028.69,-173.5"/>
</g>
<!-- DaftarAssetModule -->
<g id="node3" class="node">
<title>DaftarAssetModule</title>
<polygon fill="#8dd3c7" stroke="black" points="1733.4,-122 1730.4,-126 1709.4,-126 1706.4,-122 1606.6,-122 1606.6,-86 1733.4,-86 1733.4,-122"/>
<text text-anchor="middle" x="1670" y="-99.8" font-family="Times,serif" font-size="14.00">DaftarAssetModule</text>
</g>
<!-- DaftarAssetModule&#45;&gt;AppModule -->
<g id="edge3" class="edge">
<title>DaftarAssetModule&#45;&gt;AppModule</title>
<path fill="none" stroke="black" d="M1670,-122.22C1670,-142.37 1670,-172 1670,-172 1670,-172 1028.79,-172 1028.79,-172"/>
<polygon fill="black" stroke="black" points="1028.79,-168.5 1018.79,-172 1028.79,-175.5 1028.79,-168.5"/>
</g>
<!-- DaftarAssetTemporaryModule -->
<g id="node4" class="node">
<title>DaftarAssetTemporaryModule</title>
<polygon fill="#8dd3c7" stroke="black" points="1589.09,-122 1586.09,-126 1565.09,-126 1562.09,-122 1400.91,-122 1400.91,-86 1589.09,-86 1589.09,-122"/>
<text text-anchor="middle" x="1495" y="-99.8" font-family="Times,serif" font-size="14.00">DaftarAssetTemporaryModule</text>
</g>
<!-- DaftarAssetTemporaryModule&#45;&gt;AppModule -->
<g id="edge4" class="edge">
<title>DaftarAssetTemporaryModule&#45;&gt;AppModule</title>
<path fill="none" stroke="black" d="M1495,-122.22C1495,-140.83 1495,-167 1495,-167 1495,-167 1028.95,-167 1028.95,-167"/>
<polygon fill="black" stroke="black" points="1028.95,-163.5 1018.95,-167 1028.95,-170.5 1028.95,-163.5"/>
</g>
<!-- DaftarPenggunaModule -->
<g id="node5" class="node">
<title>DaftarPenggunaModule</title>
<polygon fill="#8dd3c7" stroke="black" points="1382.01,-122 1379.01,-126 1358.01,-126 1355.01,-122 1231.99,-122 1231.99,-86 1382.01,-86 1382.01,-122"/>
<text text-anchor="middle" x="1307" y="-99.8" font-family="Times,serif" font-size="14.00">DaftarPenggunaModule</text>
</g>
<!-- DaftarPenggunaModule&#45;&gt;AppModule -->
<g id="edge5" class="edge">
<title>DaftarPenggunaModule&#45;&gt;AppModule</title>
<path fill="none" stroke="black" d="M1307,-122.03C1307,-139.06 1307,-162 1307,-162 1307,-162 1028.79,-162 1028.79,-162"/>
<polygon fill="black" stroke="black" points="1028.79,-158.5 1018.79,-162 1028.79,-165.5 1028.79,-158.5"/>
</g>
<!-- KategoriModule -->
<g id="node6" class="node">
<title>KategoriModule</title>
<polygon fill="#8dd3c7" stroke="black" points="1213.03,-122 1210.03,-126 1189.03,-126 1186.03,-122 1104.97,-122 1104.97,-86 1213.03,-86 1213.03,-122"/>
<text text-anchor="middle" x="1159" y="-99.8" font-family="Times,serif" font-size="14.00">KategoriModule</text>
</g>
<!-- KategoriModule&#45;&gt;AppModule -->
<g id="edge6" class="edge">
<title>KategoriModule&#45;&gt;AppModule</title>
<path fill="none" stroke="black" d="M1159,-122.24C1159,-137.57 1159,-157 1159,-157 1159,-157 1028.75,-157 1028.75,-157"/>
<polygon fill="black" stroke="black" points="1028.75,-153.5 1018.75,-157 1028.75,-160.5 1028.75,-153.5"/>
</g>
<!-- LatihanModule -->
<g id="node7" class="node">
<title>LatihanModule</title>
<polygon fill="#8dd3c7" stroke="black" points="1087.31,-122 1084.31,-126 1063.31,-126 1060.31,-122 984.69,-122 984.69,-86 1087.31,-86 1087.31,-122"/>
<text text-anchor="middle" x="1036" y="-99.8" font-family="Times,serif" font-size="14.00">LatihanModule</text>
</g>
<!-- LatihanModule&#45;&gt;AppModule -->
<g id="edge7" class="edge">
<title>LatihanModule&#45;&gt;AppModule</title>
<path fill="none" stroke="black" d="M1001.84,-122.11C1001.84,-122.11 1001.84,-140.99 1001.84,-140.99"/>
<polygon fill="black" stroke="black" points="998.34,-140.99 1001.84,-150.99 1005.34,-140.99 998.34,-140.99"/>
</g>
<!-- PrismaModule -->
<g id="node8" class="node">
<title>PrismaModule</title>
<polygon fill="#8dd3c7" stroke="black" points="967.43,-122 964.43,-126 943.43,-126 940.43,-122 868.57,-122 868.57,-86 967.43,-86 967.43,-122"/>
<text text-anchor="middle" x="918" y="-99.8" font-family="Times,serif" font-size="14.00">PrismaModule</text>
</g>
<!-- PrismaModule&#45;&gt;AppModule -->
<g id="edge8" class="edge">
<title>PrismaModule&#45;&gt;AppModule</title>
<path fill="none" stroke="black" d="M951.19,-122.11C951.19,-122.11 951.19,-140.99 951.19,-140.99"/>
<polygon fill="black" stroke="black" points="947.69,-140.99 951.19,-150.99 954.69,-140.99 947.69,-140.99"/>
</g>
<!-- RiwayatAssetModule -->
<g id="node9" class="node">
<title>RiwayatAssetModule</title>
<polygon fill="#8dd3c7" stroke="black" points="850.8,-122 847.8,-126 826.8,-126 823.8,-122 713.2,-122 713.2,-86 850.8,-86 850.8,-122"/>
<text text-anchor="middle" x="782" y="-99.8" font-family="Times,serif" font-size="14.00">RiwayatAssetModule</text>
</g>
<!-- RiwayatAssetModule&#45;&gt;AppModule -->
<g id="edge9" class="edge">
<title>RiwayatAssetModule&#45;&gt;AppModule</title>
<path fill="none" stroke="black" d="M782,-122.24C782,-137.57 782,-157 782,-157 782,-157 925.17,-157 925.17,-157"/>
<polygon fill="black" stroke="black" points="925.17,-160.5 935.17,-157 925.17,-153.5 925.17,-160.5"/>
</g>
<!-- RiwayatAssetTemporaryModule -->
<g id="node10" class="node">
<title>RiwayatAssetTemporaryModule</title>
<polygon fill="#8dd3c7" stroke="black" points="696,-122 693,-126 672,-126 669,-122 496,-122 496,-86 696,-86 696,-122"/>
<text text-anchor="middle" x="596" y="-99.8" font-family="Times,serif" font-size="14.00">RiwayatAssetTemporaryModule</text>
</g>
<!-- RiwayatAssetTemporaryModule&#45;&gt;AppModule -->
<g id="edge10" class="edge">
<title>RiwayatAssetTemporaryModule&#45;&gt;AppModule</title>
<path fill="none" stroke="black" d="M596,-122.03C596,-139.06 596,-162 596,-162 596,-162 925.14,-162 925.14,-162"/>
<polygon fill="black" stroke="black" points="925.14,-165.5 935.14,-162 925.14,-158.5 925.14,-165.5"/>
</g>
<!-- SatkerModule -->
<g id="node11" class="node">
<title>SatkerModule</title>
<polygon fill="#8dd3c7" stroke="black" points="478.81,-122 475.81,-126 454.81,-126 451.81,-122 383.19,-122 383.19,-86 478.81,-86 478.81,-122"/>
<text text-anchor="middle" x="431" y="-99.8" font-family="Times,serif" font-size="14.00">SatkerModule</text>
</g>
<!-- SatkerModule&#45;&gt;AppModule -->
<g id="edge11" class="edge">
<title>SatkerModule&#45;&gt;AppModule</title>
<path fill="none" stroke="black" d="M431,-122.22C431,-140.83 431,-167 431,-167 431,-167 925.06,-167 925.06,-167"/>
<polygon fill="black" stroke="black" points="925.06,-170.5 935.06,-167 925.06,-163.5 925.06,-170.5"/>
</g>
<!-- SchoolModule -->
<g id="node12" class="node">
<title>SchoolModule</title>
<polygon fill="#8dd3c7" stroke="black" points="365.44,-122 362.44,-126 341.44,-126 338.44,-122 266.56,-122 266.56,-86 365.44,-86 365.44,-122"/>
<text text-anchor="middle" x="316" y="-99.8" font-family="Times,serif" font-size="14.00">SchoolModule</text>
</g>
<!-- SchoolModule&#45;&gt;AppModule -->
<g id="edge12" class="edge">
<title>SchoolModule&#45;&gt;AppModule</title>
<path fill="none" stroke="black" d="M316,-122.22C316,-142.37 316,-172 316,-172 316,-172 925.15,-172 925.15,-172"/>
<polygon fill="black" stroke="black" points="925.15,-175.5 935.15,-172 925.15,-168.5 925.15,-175.5"/>
</g>
<!-- TaskModule -->
<g id="node13" class="node">
<title>TaskModule</title>
<polygon fill="#8dd3c7" stroke="black" points="248.26,-122 245.26,-126 224.26,-126 221.26,-122 161.74,-122 161.74,-86 248.26,-86 248.26,-122"/>
<text text-anchor="middle" x="205" y="-99.8" font-family="Times,serif" font-size="14.00">TaskModule</text>
</g>
<!-- TaskModule&#45;&gt;AppModule -->
<g id="edge13" class="edge">
<title>TaskModule&#45;&gt;AppModule</title>
<path fill="none" stroke="black" d="M205,-122.04C205,-143.66 205,-177 205,-177 205,-177 925.22,-177 925.22,-177"/>
<polygon fill="black" stroke="black" points="925.22,-180.5 935.22,-177 925.22,-173.5 925.22,-180.5"/>
</g>
<!-- AppService -->
<g id="node15" class="node">
<title>AppService</title>
<ellipse fill="#fdb462" stroke="black" cx="81" cy="-104" rx="56.74" ry="18"/>
<text text-anchor="middle" x="81" y="-99.8" font-family="Times,serif" font-size="14.00">AppService</text>
</g>
<!-- AppService&#45;&gt;AppModule -->
<g id="edge14" class="edge">
<title>AppService&#45;&gt;AppModule</title>
<path fill="none" stroke="black" d="M81,-122.09C81,-145.13 81,-182 81,-182 81,-182 925.28,-182 925.28,-182"/>
<polygon fill="black" stroke="black" points="925.28,-185.5 935.28,-182 925.28,-178.5 925.28,-185.5"/>
</g>
</g>
</svg>
