<?xml version="1.0" encoding="UTF-8" standalone="no"?>
<!DOCTYPE svg PUBLIC "-//W3C//DTD SVG 1.1//EN"
 "http://www.w3.org/Graphics/SVG/1.1/DTD/svg11.dtd">
<!-- Generated by graphviz version 2.47.0 (20210316.0004)
 -->
<!-- Title: dependencies Pages: 1 -->
<svg width="504pt" height="211pt"
 viewBox="0.00 0.00 504.00 211.00" xmlns="http://www.w3.org/2000/svg" xmlns:xlink="http://www.w3.org/1999/xlink">
<g id="graph0" class="graph" transform="scale(1 1) rotate(0) translate(4 207)">
<title>dependencies</title>
<polygon fill="white" stroke="transparent" points="-4,4 -4,-207 500,-207 500,4 -4,4"/>
<text text-anchor="start" x="227.01" y="-42.4" font-family="Times-12" font-weight="bold" font-size="14.00">Legend</text>
<polygon fill="#ffffb3" stroke="transparent" points="14,-10 14,-30 34,-30 34,-10 14,-10"/>
<text text-anchor="start" x="37.63" y="-15.4" font-family="Times-12" font-size="14.00"> &#160;Declarations</text>
<polygon fill="#8dd3c7" stroke="transparent" points="127,-10 127,-30 147,-30 147,-10 127,-10"/>
<text text-anchor="start" x="150.73" y="-15.4" font-family="Times-12" font-size="14.00"> &#160;Module</text>
<polygon fill="#80b1d3" stroke="transparent" points="213,-10 213,-30 233,-30 233,-10 213,-10"/>
<text text-anchor="start" x="236.78" y="-15.4" font-family="Times-12" font-size="14.00"> &#160;Bootstrap</text>
<polygon fill="#fdb462" stroke="transparent" points="310,-10 310,-30 330,-30 330,-10 310,-10"/>
<text text-anchor="start" x="333.67" y="-15.4" font-family="Times-12" font-size="14.00"> &#160;Providers</text>
<polygon fill="#fb8072" stroke="transparent" points="406,-10 406,-30 426,-30 426,-10 406,-10"/>
<text text-anchor="start" x="429.73" y="-15.4" font-family="Times-12" font-size="14.00"> &#160;Exports</text>
<g id="clust1" class="cluster">
<title>cluster_DaftarPenggunaModule</title>
<polygon fill="none" stroke="black" stroke-dasharray="1,5" points="68,-70 68,-195 428,-195 428,-70 68,-70"/>
</g>
<g id="clust3" class="cluster">
<title>cluster_DaftarPenggunaModule_imports</title>
<polygon fill="none" stroke="black" points="306,-78 306,-130 420,-130 420,-78 306,-78"/>
</g>
<g id="clust6" class="cluster">
<title>cluster_DaftarPenggunaModule_providers</title>
<polygon fill="none" stroke="black" points="76,-78 76,-130 298,-130 298,-78 76,-78"/>
</g>
<!-- PrismaModule -->
<g id="node1" class="node">
<title>PrismaModule</title>
<polygon fill="#8dd3c7" stroke="black" points="412.43,-122 409.43,-126 388.43,-126 385.43,-122 313.57,-122 313.57,-86 412.43,-86 412.43,-122"/>
<text text-anchor="middle" x="363" y="-99.8" font-family="Times,serif" font-size="14.00">PrismaModule</text>
</g>
<!-- DaftarPenggunaModule -->
<g id="node2" class="node">
<title>DaftarPenggunaModule</title>
<polygon fill="#8dd3c7" stroke="black" points="341.01,-187 338.01,-191 317.01,-191 314.01,-187 190.99,-187 190.99,-151 341.01,-151 341.01,-187"/>
<text text-anchor="middle" x="266" y="-164.8" font-family="Times,serif" font-size="14.00">DaftarPenggunaModule</text>
</g>
<!-- PrismaModule&#45;&gt;DaftarPenggunaModule -->
<g id="edge1" class="edge">
<title>PrismaModule&#45;&gt;DaftarPenggunaModule</title>
<path fill="none" stroke="black" d="M327.52,-122.11C327.52,-122.11 327.52,-140.99 327.52,-140.99"/>
<polygon fill="black" stroke="black" points="324.02,-140.99 327.52,-150.99 331.02,-140.99 324.02,-140.99"/>
</g>
<!-- DaftarPenggunaService -->
<g id="node3" class="node">
<title>DaftarPenggunaService</title>
<ellipse fill="#fdb462" stroke="black" cx="187" cy="-104" rx="102.97" ry="18"/>
<text text-anchor="middle" x="187" y="-99.8" font-family="Times,serif" font-size="14.00">DaftarPenggunaService</text>
</g>
<!-- DaftarPenggunaService&#45;&gt;DaftarPenggunaModule -->
<g id="edge2" class="edge">
<title>DaftarPenggunaService&#45;&gt;DaftarPenggunaModule</title>
<path fill="none" stroke="black" d="M240.24,-119.4C240.24,-119.4 240.24,-140.94 240.24,-140.94"/>
<polygon fill="black" stroke="black" points="236.74,-140.94 240.24,-150.94 243.74,-140.94 236.74,-140.94"/>
</g>
</g>
</svg>
