<?xml version="1.0" encoding="UTF-8" standalone="no"?>
<!DOCTYPE svg PUBLIC "-//W3C//DTD SVG 1.1//EN"
 "http://www.w3.org/Graphics/SVG/1.1/DTD/svg11.dtd">
<!-- Generated by graphviz version 2.47.0 (20210316.0004)
 -->
<!-- Title: dependencies Pages: 1 -->
<svg width="504pt" height="211pt"
 viewBox="0.00 0.00 504.00 211.00" xmlns="http://www.w3.org/2000/svg" xmlns:xlink="http://www.w3.org/1999/xlink">
<g id="graph0" class="graph" transform="scale(1 1) rotate(0) translate(4 207)">
<title>dependencies</title>
<polygon fill="white" stroke="transparent" points="-4,4 -4,-207 500,-207 500,4 -4,4"/>
<text text-anchor="start" x="227.01" y="-42.4" font-family="Times-12" font-weight="bold" font-size="14.00">Legend</text>
<polygon fill="#ffffb3" stroke="transparent" points="14,-10 14,-30 34,-30 34,-10 14,-10"/>
<text text-anchor="start" x="37.63" y="-15.4" font-family="Times-12" font-size="14.00"> &#160;Declarations</text>
<polygon fill="#8dd3c7" stroke="transparent" points="127,-10 127,-30 147,-30 147,-10 127,-10"/>
<text text-anchor="start" x="150.73" y="-15.4" font-family="Times-12" font-size="14.00"> &#160;Module</text>
<polygon fill="#80b1d3" stroke="transparent" points="213,-10 213,-30 233,-30 233,-10 213,-10"/>
<text text-anchor="start" x="236.78" y="-15.4" font-family="Times-12" font-size="14.00"> &#160;Bootstrap</text>
<polygon fill="#fdb462" stroke="transparent" points="310,-10 310,-30 330,-30 330,-10 310,-10"/>
<text text-anchor="start" x="333.67" y="-15.4" font-family="Times-12" font-size="14.00"> &#160;Providers</text>
<polygon fill="#fb8072" stroke="transparent" points="406,-10 406,-30 426,-30 426,-10 406,-10"/>
<text text-anchor="start" x="429.73" y="-15.4" font-family="Times-12" font-size="14.00"> &#160;Exports</text>
<g id="clust1" class="cluster">
<title>cluster_KategoriModule</title>
<polygon fill="none" stroke="black" stroke-dasharray="1,5" points="97,-70 97,-195 399,-195 399,-70 97,-70"/>
</g>
<g id="clust3" class="cluster">
<title>cluster_KategoriModule_imports</title>
<polygon fill="none" stroke="black" points="277,-78 277,-130 391,-130 391,-78 277,-78"/>
</g>
<g id="clust6" class="cluster">
<title>cluster_KategoriModule_providers</title>
<polygon fill="none" stroke="black" points="105,-78 105,-130 269,-130 269,-78 105,-78"/>
</g>
<!-- PrismaModule -->
<g id="node1" class="node">
<title>PrismaModule</title>
<polygon fill="#8dd3c7" stroke="black" points="383.43,-122 380.43,-126 359.43,-126 356.43,-122 284.57,-122 284.57,-86 383.43,-86 383.43,-122"/>
<text text-anchor="middle" x="334" y="-99.8" font-family="Times,serif" font-size="14.00">PrismaModule</text>
</g>
<!-- KategoriModule -->
<g id="node2" class="node">
<title>KategoriModule</title>
<polygon fill="#8dd3c7" stroke="black" points="314.03,-187 311.03,-191 290.03,-191 287.03,-187 205.97,-187 205.97,-151 314.03,-151 314.03,-187"/>
<text text-anchor="middle" x="260" y="-164.8" font-family="Times,serif" font-size="14.00">KategoriModule</text>
</g>
<!-- PrismaModule&#45;&gt;KategoriModule -->
<g id="edge1" class="edge">
<title>PrismaModule&#45;&gt;KategoriModule</title>
<path fill="none" stroke="black" d="M299.52,-122.11C299.52,-122.11 299.52,-140.99 299.52,-140.99"/>
<polygon fill="black" stroke="black" points="296.02,-140.99 299.52,-150.99 303.02,-140.99 296.02,-140.99"/>
</g>
<!-- KategoriService -->
<g id="node3" class="node">
<title>KategoriService</title>
<ellipse fill="#fdb462" stroke="black" cx="187" cy="-104" rx="73.55" ry="18"/>
<text text-anchor="middle" x="187" y="-99.8" font-family="Times,serif" font-size="14.00">KategoriService</text>
</g>
<!-- KategoriService&#45;&gt;KategoriModule -->
<g id="edge2" class="edge">
<title>KategoriService&#45;&gt;KategoriModule</title>
<path fill="none" stroke="black" d="M233.26,-118.1C233.26,-118.1 233.26,-140.72 233.26,-140.72"/>
<polygon fill="black" stroke="black" points="229.76,-140.72 233.26,-150.72 236.76,-140.72 229.76,-140.72"/>
</g>
</g>
</svg>
