<?xml version="1.0" encoding="UTF-8" standalone="no"?>
<!DOCTYPE svg PUBLIC "-//W3C//DTD SVG 1.1//EN"
 "http://www.w3.org/Graphics/SVG/1.1/DTD/svg11.dtd">
<!-- Generated by graphviz version 2.47.0 (20210316.0004)
 -->
<!-- Title: dependencies Pages: 1 -->
<svg width="504pt" height="211pt"
 viewBox="0.00 0.00 504.00 211.00" xmlns="http://www.w3.org/2000/svg" xmlns:xlink="http://www.w3.org/1999/xlink">
<g id="graph0" class="graph" transform="scale(1 1) rotate(0) translate(4 207)">
<title>dependencies</title>
<polygon fill="white" stroke="transparent" points="-4,4 -4,-207 500,-207 500,4 -4,4"/>
<text text-anchor="start" x="227.01" y="-42.4" font-family="Times-12" font-weight="bold" font-size="14.00">Legend</text>
<polygon fill="#ffffb3" stroke="transparent" points="14,-10 14,-30 34,-30 34,-10 14,-10"/>
<text text-anchor="start" x="37.63" y="-15.4" font-family="Times-12" font-size="14.00"> &#160;Declarations</text>
<polygon fill="#8dd3c7" stroke="transparent" points="127,-10 127,-30 147,-30 147,-10 127,-10"/>
<text text-anchor="start" x="150.73" y="-15.4" font-family="Times-12" font-size="14.00"> &#160;Module</text>
<polygon fill="#80b1d3" stroke="transparent" points="213,-10 213,-30 233,-30 233,-10 213,-10"/>
<text text-anchor="start" x="236.78" y="-15.4" font-family="Times-12" font-size="14.00"> &#160;Bootstrap</text>
<polygon fill="#fdb462" stroke="transparent" points="310,-10 310,-30 330,-30 330,-10 310,-10"/>
<text text-anchor="start" x="333.67" y="-15.4" font-family="Times-12" font-size="14.00"> &#160;Providers</text>
<polygon fill="#fb8072" stroke="transparent" points="406,-10 406,-30 426,-30 426,-10 406,-10"/>
<text text-anchor="start" x="429.73" y="-15.4" font-family="Times-12" font-size="14.00"> &#160;Exports</text>
<g id="clust1" class="cluster">
<title>cluster_RiwayatAssetModule</title>
<polygon fill="none" stroke="black" stroke-dasharray="1,5" points="77,-70 77,-195 419,-195 419,-70 77,-70"/>
</g>
<g id="clust3" class="cluster">
<title>cluster_RiwayatAssetModule_imports</title>
<polygon fill="none" stroke="black" points="297,-78 297,-130 411,-130 411,-78 297,-78"/>
</g>
<g id="clust6" class="cluster">
<title>cluster_RiwayatAssetModule_providers</title>
<polygon fill="none" stroke="black" points="85,-78 85,-130 289,-130 289,-78 85,-78"/>
</g>
<!-- PrismaModule -->
<g id="node1" class="node">
<title>PrismaModule</title>
<polygon fill="#8dd3c7" stroke="black" points="403.43,-122 400.43,-126 379.43,-126 376.43,-122 304.57,-122 304.57,-86 403.43,-86 403.43,-122"/>
<text text-anchor="middle" x="354" y="-99.8" font-family="Times,serif" font-size="14.00">PrismaModule</text>
</g>
<!-- RiwayatAssetModule -->
<g id="node2" class="node">
<title>RiwayatAssetModule</title>
<polygon fill="#8dd3c7" stroke="black" points="332.8,-187 329.8,-191 308.8,-191 305.8,-187 195.2,-187 195.2,-151 332.8,-151 332.8,-187"/>
<text text-anchor="middle" x="264" y="-164.8" font-family="Times,serif" font-size="14.00">RiwayatAssetModule</text>
</g>
<!-- PrismaModule&#45;&gt;RiwayatAssetModule -->
<g id="edge1" class="edge">
<title>PrismaModule&#45;&gt;RiwayatAssetModule</title>
<path fill="none" stroke="black" d="M318.72,-122.11C318.72,-122.11 318.72,-140.99 318.72,-140.99"/>
<polygon fill="black" stroke="black" points="315.22,-140.99 318.72,-150.99 322.22,-140.99 315.22,-140.99"/>
</g>
<!-- RiwayatAssetService -->
<g id="node3" class="node">
<title>RiwayatAssetService</title>
<ellipse fill="#fdb462" stroke="black" cx="187" cy="-104" rx="93.75" ry="18"/>
<text text-anchor="middle" x="187" y="-99.8" font-family="Times,serif" font-size="14.00">RiwayatAssetService</text>
</g>
<!-- RiwayatAssetService&#45;&gt;RiwayatAssetModule -->
<g id="edge2" class="edge">
<title>RiwayatAssetService&#45;&gt;RiwayatAssetModule</title>
<path fill="none" stroke="black" d="M237.99,-119.4C237.99,-119.4 237.99,-140.94 237.99,-140.94"/>
<polygon fill="black" stroke="black" points="234.49,-140.94 237.99,-150.94 241.49,-140.94 234.49,-140.94"/>
</g>
</g>
</svg>
