<?xml version="1.0" encoding="UTF-8" standalone="no"?>
<!DOCTYPE svg PUBLIC "-//W3C//DTD SVG 1.1//EN"
 "http://www.w3.org/Graphics/SVG/1.1/DTD/svg11.dtd">
<!-- Generated by graphviz version 2.47.0 (20210316.0004)
 -->
<!-- Title: dependencies Pages: 1 -->
<svg width="504pt" height="211pt"
 viewBox="0.00 0.00 504.00 211.00" xmlns="http://www.w3.org/2000/svg" xmlns:xlink="http://www.w3.org/1999/xlink">
<g id="graph0" class="graph" transform="scale(1 1) rotate(0) translate(4 207)">
<title>dependencies</title>
<polygon fill="white" stroke="transparent" points="-4,4 -4,-207 500,-207 500,4 -4,4"/>
<text text-anchor="start" x="227.01" y="-42.4" font-family="Times-12" font-weight="bold" font-size="14.00">Legend</text>
<polygon fill="#ffffb3" stroke="transparent" points="14,-10 14,-30 34,-30 34,-10 14,-10"/>
<text text-anchor="start" x="37.63" y="-15.4" font-family="Times-12" font-size="14.00"> &#160;Declarations</text>
<polygon fill="#8dd3c7" stroke="transparent" points="127,-10 127,-30 147,-30 147,-10 127,-10"/>
<text text-anchor="start" x="150.73" y="-15.4" font-family="Times-12" font-size="14.00"> &#160;Module</text>
<polygon fill="#80b1d3" stroke="transparent" points="213,-10 213,-30 233,-30 233,-10 213,-10"/>
<text text-anchor="start" x="236.78" y="-15.4" font-family="Times-12" font-size="14.00"> &#160;Bootstrap</text>
<polygon fill="#fdb462" stroke="transparent" points="310,-10 310,-30 330,-30 330,-10 310,-10"/>
<text text-anchor="start" x="333.67" y="-15.4" font-family="Times-12" font-size="14.00"> &#160;Providers</text>
<polygon fill="#fb8072" stroke="transparent" points="406,-10 406,-30 426,-30 426,-10 406,-10"/>
<text text-anchor="start" x="429.73" y="-15.4" font-family="Times-12" font-size="14.00"> &#160;Exports</text>
<g id="clust1" class="cluster">
<title>cluster_AdminPenggunaModule</title>
<polygon fill="none" stroke="black" stroke-dasharray="1,5" points="66,-70 66,-195 430,-195 430,-70 66,-70"/>
</g>
<g id="clust3" class="cluster">
<title>cluster_AdminPenggunaModule_imports</title>
<polygon fill="none" stroke="black" points="308,-78 308,-130 422,-130 422,-78 308,-78"/>
</g>
<g id="clust6" class="cluster">
<title>cluster_AdminPenggunaModule_providers</title>
<polygon fill="none" stroke="black" points="74,-78 74,-130 300,-130 300,-78 74,-78"/>
</g>
<!-- PrismaModule -->
<g id="node1" class="node">
<title>PrismaModule</title>
<polygon fill="#8dd3c7" stroke="black" points="414.43,-122 411.43,-126 390.43,-126 387.43,-122 315.57,-122 315.57,-86 414.43,-86 414.43,-122"/>
<text text-anchor="middle" x="365" y="-99.8" font-family="Times,serif" font-size="14.00">PrismaModule</text>
</g>
<!-- AdminPenggunaModule -->
<g id="node2" class="node">
<title>AdminPenggunaModule</title>
<polygon fill="#8dd3c7" stroke="black" points="342.65,-187 339.65,-191 318.65,-191 315.65,-187 189.35,-187 189.35,-151 342.65,-151 342.65,-187"/>
<text text-anchor="middle" x="266" y="-164.8" font-family="Times,serif" font-size="14.00">AdminPenggunaModule</text>
</g>
<!-- PrismaModule&#45;&gt;AdminPenggunaModule -->
<g id="edge1" class="edge">
<title>PrismaModule&#45;&gt;AdminPenggunaModule</title>
<path fill="none" stroke="black" d="M329.3,-122.11C329.3,-122.11 329.3,-140.99 329.3,-140.99"/>
<polygon fill="black" stroke="black" points="325.8,-140.99 329.3,-150.99 332.8,-140.99 325.8,-140.99"/>
</g>
<!-- AdminPenggunaService -->
<g id="node3" class="node">
<title>AdminPenggunaService</title>
<ellipse fill="#fdb462" stroke="black" cx="187" cy="-104" rx="104.8" ry="18"/>
<text text-anchor="middle" x="187" y="-99.8" font-family="Times,serif" font-size="14.00">AdminPenggunaService</text>
</g>
<!-- AdminPenggunaService&#45;&gt;AdminPenggunaModule -->
<g id="edge2" class="edge">
<title>AdminPenggunaService&#45;&gt;AdminPenggunaModule</title>
<path fill="none" stroke="black" d="M240.54,-119.73C240.54,-119.73 240.54,-140.65 240.54,-140.65"/>
<polygon fill="black" stroke="black" points="237.04,-140.65 240.54,-150.65 244.04,-140.65 237.04,-140.65"/>
</g>
</g>
</svg>
